<svg width="527" height="185" viewBox="0 0 527 185" fill="none" xmlns="http://www.w3.org/2000/svg">
<path d="M29.349 114.848C29.349 94.0089 67.6667 80.2574 67.6667 57.5264C67.6667 44.2267 55.2708 32.6777 53.4115 32C53.5573 32.9318 53.6302 33.8919 53.6302 34.8237C53.6302 60.8302 0 78.2808 0 110.669C0 124.731 11.7396 133.033 24.2448 141.25C47.9792 154.436 52.7188 161.411 52.7188 165.703C52.7188 168.555 50.9688 170.503 50.9688 172C55.7448 167.284 57.3125 162.992 57.349 158.898C57.349 150.54 49.4375 143 41.2344 134.473C35.401 128.176 29.349 122.444 29.349 114.848ZM104.198 103.835C99.7865 84.973 75.7604 68.7084 69.6719 66.8729L71.1302 68.906C72.0052 70.3461 72.3698 71.9839 72.3698 73.7346C72.3698 86.3566 52.6094 105.134 51.7344 106.687C50.9323 108.128 50.5677 109.652 50.5677 111.149C50.5677 116.825 56.1094 123.037 57.0938 123.037C57.9688 123.037 77.7292 107.393 78.276 98.2727C80.6094 101.576 81.5938 104.654 81.5938 107.704C81.5938 119.338 66.3542 135.066 66.3542 135.066C66.3542 138.341 77.9844 150.088 79.2969 150.088C79.6615 150.088 80.099 149.693 80.4635 149.41C94.2812 138.313 105 125.409 105 110.782C105 108.523 104.745 106.207 104.198 103.835Z" fill="#64FFDA"/>
<path d="M132.832 147.744V50.464L155.104 48.416L167.904 54.816V152.096L145.632 154.016L132.832 147.744ZM134.112 51.616V146.336L153.824 144.544V49.824L134.112 51.616ZM184.942 151.456C186.222 151.541 187.502 151.584 188.782 151.584C190.062 151.584 191.299 151.584 192.494 151.584C195.225 151.584 197.742 151.499 200.046 151.328C202.35 151.243 204.313 151.115 205.934 150.944C206.702 150.859 207.427 150.731 208.11 150.56C208.878 150.475 209.603 150.389 210.286 150.304C206.019 149.536 202.009 148.427 198.254 146.976C194.585 145.44 191.342 143.307 188.526 140.576C185.795 137.76 183.619 134.048 181.998 129.44C180.462 124.832 179.694 119.029 179.694 112.032C179.694 103.413 180.974 96.5013 183.534 91.296C186.094 86.0053 189.337 82.1227 193.262 79.648C197.273 77.088 201.411 75.6373 205.678 75.296C206.19 75.2107 206.702 75.168 207.214 75.168C207.726 75.168 208.195 75.168 208.622 75.168C211.438 75.168 213.87 75.5947 215.918 76.448C217.966 77.216 219.502 78.1973 220.526 79.392L222.062 75.424L239.854 73.888L252.654 80.288V146.72C252.654 153.376 251.502 158.837 249.198 163.104C246.894 167.371 243.011 170.699 237.55 173.088C232.089 175.563 224.665 177.355 215.278 178.464C213.913 178.635 212.121 178.763 209.902 178.848C207.769 178.933 205.721 178.976 203.758 178.976L190.958 172.576L184.942 151.456ZM222.83 76.704L220.398 84C219.801 81.2693 218.478 79.3493 216.43 78.24C214.467 77.0453 211.95 76.448 208.878 76.448C208.451 76.448 207.939 76.448 207.342 76.448C206.83 76.448 206.318 76.4907 205.806 76.576C201.71 76.9173 197.742 78.3253 193.902 80.8C190.147 83.1893 187.033 86.944 184.558 92.064C182.169 97.0987 180.974 103.755 180.974 112.032C180.974 120.053 181.955 126.325 183.918 130.848C185.966 135.371 188.654 138.571 191.982 140.448C195.31 142.325 198.937 143.264 202.862 143.264C203.289 143.264 203.758 143.264 204.27 143.264C204.782 143.264 205.251 143.221 205.678 143.136C211.737 142.539 216.601 140.107 220.27 135.84V141.856C220.27 145.184 219.075 147.616 216.686 149.152C214.297 150.688 210.755 151.712 206.062 152.224C202.478 152.651 198.169 152.864 193.134 152.864C192.025 152.864 190.915 152.864 189.806 152.864C188.697 152.864 187.63 152.821 186.606 152.736L191.982 171.296C193.433 171.296 195.182 171.253 197.23 171.168C199.278 171.083 200.985 170.955 202.35 170.784C211.395 169.675 218.563 167.968 223.854 165.664C229.145 163.36 232.899 160.16 235.118 156.064C237.422 151.968 238.574 146.72 238.574 140.32V75.296L222.83 76.704ZM220.27 113.056C220.27 116.811 219.331 119.755 217.454 121.888C215.577 124.021 213.401 125.173 210.926 125.344C210.67 125.344 210.414 125.387 210.158 125.472C209.902 125.472 209.646 125.472 209.39 125.472C206.403 125.472 204.099 124.405 202.478 122.272C200.857 120.139 200.046 116.384 200.046 111.008C200.046 106.571 200.473 103.157 201.326 100.768C202.265 98.2933 203.502 96.544 205.038 95.52C206.574 94.4107 208.281 93.7707 210.158 93.6H211.054C213.614 93.6 215.619 94.368 217.07 95.904C218.521 97.3547 219.587 98.6773 220.27 99.872V113.056ZM218.99 102.688C217.966 102.688 217.07 103.072 216.302 103.84C215.619 104.608 215.065 106.059 214.638 108.192C214.297 110.24 214.126 113.312 214.126 117.408C214.126 119.456 214.254 121.248 214.51 122.784C217.497 121.248 218.99 118.005 218.99 113.056V102.688ZM298.689 147.488V107.424C297.665 108.448 297.025 109.643 296.769 111.008V153.504L277.441 155.424L264.641 149.024V78.752L284.225 76.96L288.321 80.288C289.772 79.0933 291.35 78.0267 293.057 77.088C294.764 76.064 296.812 75.4667 299.201 75.296C299.628 75.296 300.012 75.296 300.353 75.296C300.694 75.2107 301.036 75.168 301.377 75.168C305.217 75.168 308.972 75.8507 312.641 77.216C316.396 78.5813 319.724 80.5013 322.625 82.976C325.612 85.3653 327.958 88.1813 329.665 91.424C331.457 94.6667 332.353 98.1653 332.353 101.92V151.968L311.489 153.76L298.689 147.488ZM318.273 93.472C318.273 87.584 316.652 83.2747 313.409 80.544C310.252 77.8133 306.326 76.448 301.633 76.448C301.292 76.448 300.908 76.448 300.481 76.448C300.14 76.448 299.756 76.4907 299.329 76.576C295.148 76.9173 291.606 78.5387 288.705 81.44C285.804 84.256 284.012 87.5413 283.329 91.296H282.945V78.368L265.921 79.904V147.744L284.225 146.08V104.48C284.652 102.432 285.59 100.555 287.041 98.848C288.577 97.1413 290.54 96.16 292.929 95.904H293.441C295.233 95.904 296.769 96.544 298.049 97.824C299.329 99.0187 299.969 101.024 299.969 103.84V146.08L318.273 144.416V93.472ZM345.031 147.616V77.216L353.735 76.576L344.775 72.096V50.336L366.151 48.544L378.951 54.944V76.704L369.863 77.472L378.567 81.824V152.096L357.831 153.888L345.031 147.616ZM346.055 51.488V70.688L364.871 69.152V49.952L346.055 51.488ZM346.311 78.368V146.208L364.487 144.672V76.832L346.311 78.368ZM441.311 154.016C439.348 154.101 437.428 154.187 435.551 154.272C433.759 154.443 432.01 154.528 430.303 154.528C418.186 154.528 409.226 152.309 403.423 147.872C397.62 143.435 394.719 136.139 394.719 125.984V101.536L386.527 97.44V78.112L394.719 77.472V56.608L415.455 54.688L428.255 61.088V75.808L438.879 81.056V100.384L428.255 101.28V127.008L432.607 126.624L445.407 133.024L441.311 154.016ZM430.943 128.16C429.066 128.331 427.402 128.501 425.951 128.672C424.586 128.757 423.306 128.8 422.111 128.8C418.527 128.8 416.308 128.16 415.455 126.88C414.602 125.6 414.175 123.381 414.175 120.224V93.728L424.799 92.832V76.064L414.175 76.96V56.096L395.999 57.76V78.624L387.807 79.264V96.032L395.999 95.392V125.984C395.999 131.104 396.639 135.2 397.919 138.272C399.199 141.344 401.375 143.563 404.447 144.928C407.604 146.293 411.956 146.976 417.503 146.976C418.954 146.976 420.49 146.933 422.111 146.848C423.732 146.763 425.482 146.635 427.359 146.464L430.943 128.16ZM523.163 130.848C520.859 138.016 517.446 143.819 512.923 148.256C508.486 152.693 502.427 155.253 494.747 155.936C493.808 156.021 492.87 156.064 491.931 156.064C491.078 156.149 490.182 156.192 489.243 156.192C481.819 156.192 475.12 154.656 469.147 151.584C463.259 148.597 458.566 144.075 455.067 138.016C451.568 131.957 449.819 124.448 449.819 115.488C449.819 107.637 451.142 100.853 453.787 95.136C456.518 89.4187 460.187 84.9387 464.795 81.696C469.488 78.368 474.822 76.448 480.795 75.936C481.392 75.8507 481.99 75.808 482.587 75.808C483.27 75.808 483.91 75.808 484.507 75.808C489.286 75.808 493.979 76.6613 498.587 78.368C503.28 79.9893 507.504 82.5493 511.259 86.048C515.099 89.5467 518.128 94.0693 520.347 99.616C522.651 105.077 523.803 111.648 523.803 119.328C523.803 120.011 523.803 120.736 523.803 121.504C523.803 122.187 523.76 122.869 523.675 123.552L510.235 124.704L523.163 130.848ZM492.955 120.992C492.187 123.893 490.779 126.283 488.731 128.16C486.683 130.037 484.038 131.147 480.795 131.488H479.771C476.87 131.488 474.48 130.421 472.603 128.288C470.726 126.155 469.787 123.211 469.787 119.456L509.595 116C509.68 115.147 509.723 114.336 509.723 113.568C509.723 112.715 509.723 111.904 509.723 111.136C509.723 100.384 507.419 92.0213 502.811 86.048C498.203 80.0747 491.846 77.088 483.739 77.088C483.312 77.088 482.843 77.088 482.331 77.088C481.904 77.088 481.435 77.1307 480.923 77.216C475.206 77.6427 470.086 79.4773 465.563 82.72C461.04 85.8773 457.499 90.2293 454.939 95.776C452.379 101.323 451.099 107.893 451.099 115.488C451.099 126.496 453.574 134.731 458.523 140.192C463.472 145.653 470.043 148.384 478.235 148.384C478.832 148.384 479.43 148.384 480.027 148.384C480.624 148.384 481.222 148.341 481.819 148.256C489.158 147.659 494.96 145.269 499.227 141.088C503.579 136.907 506.694 131.701 508.571 125.472L492.955 120.992ZM470.427 105.12C470.427 102.304 471.408 99.872 473.371 97.824C475.334 95.776 477.851 94.624 480.923 94.368H482.075C484.635 94.368 486.726 95.136 488.347 96.672C490.054 98.1227 490.907 100.341 490.907 103.328L470.427 105.12ZM480.795 127.392C480.795 127.819 480.966 128.245 481.307 128.672C481.734 129.099 482.16 129.525 482.587 129.952C484.123 129.525 485.318 129.013 486.171 128.416C487.024 127.819 487.75 127.221 488.347 126.624L480.795 127.392Z" fill="#64FFDA"/>
</svg>
